<?xml version="1.0" encoding="utf-8"?>
<!-- Generator: Adobe Illustrator 24.1.2, SVG Export Plug-In . SVG Version: 6.00 Build 0)  -->
<svg version="1.1" id="Слой_1" xmlns="http://www.w3.org/2000/svg" xmlns:xlink="http://www.w3.org/1999/xlink" x="0px" y="0px"
	 viewBox="0 0 2811.4 1282.5" style="enable-background:new 0 0 2811.4 1282.5;" xml:space="preserve">
<style type="text/css">
	.st0{fill:#BBD070;}
	.st1{fill:#97A43C;}
	.st2{fill:#48753A;}
	.st3{fill:#FFFFFF;}
	.st4{fill:url(#SVGID_1_);}
	.st5{fill:url(#SVGID_2_);}
	.st6{fill:#FF9F55;}
	.st7{fill:#EFF7FE;}
	.st8{fill:url(#SVGID_3_);}
	.st9{fill:#5284FC;}
	.st10{fill:url(#SVGID_4_);}
	.st11{fill:url(#SVGID_5_);}
	.st12{fill:url(#SVGID_6_);}
	.st13{fill:url(#SVGID_7_);}
	.st14{fill:url(#SVGID_8_);}
	.st15{fill:#F08533;}
	.st16{fill:#FAE6DE;}
	.st17{fill:url(#SVGID_9_);}
	.st18{fill:#495DA1;}
	.st19{fill:#DECCC5;}
	.st20{fill:#EEA886;}
	.st21{fill:url(#SVGID_10_);}
	.st22{fill:url(#SVGID_11_);}
	.st23{fill:#E8E8E8;}
	.st24{fill:#C1DBD1;}
	.st25{fill:#152B3D;}
	.st26{fill:#323657;}
	.st27{fill:#254380;}
	.st28{fill:#353A3D;}
	.st29{fill:#E55353;}
	.st30{fill:#FFBB55;}
	.st31{fill:#213A70;}
	.st32{fill:#303669;}
	.st33{fill:#3A3F47;}
	.st34{fill:#A77860;}
	.st35{fill:#968A86;}
	.st36{fill:#807571;}
	.st37{fill:#DBCAC2;}
	.st38{fill:#B0A29C;}
	.st39{fill:#FFC055;}
	.st40{fill:#33373B;}
	.st41{fill:#23263D;}
	.st42{fill:#C49441;}
	.st43{fill:#EEA987;}
	.st44{fill:#7D699C;}
	.st45{fill:#AB3434;}
	.st46{fill:#1D2033;}
	.st47{fill:#2E334D;}
	.st48{fill:#5A954B;}
	.st49{fill:#EBE2D8;}
	.st50{fill:#2B4724;}
</style>
<g>
	<g>
		<g>
			<g>
				<g>
					<g>
						<g>
							<path class="st0" d="M2486.8,613c0,0-273-117.3-378.4,41.7s42.3,149.1,42.3,149.1s8.2,73.5,147.6-100.5
								C2364.1,621.3,2486.8,613,2486.8,613z"/>
						</g>
					</g>
				</g>
				<g>
					<g>
						<g>
							<path class="st1" d="M2534.4,159.8c0,0-242.3-75.1-401.8,232.2s-303,331.6-303,331.6S2377.6,821.9,2534.4,159.8z"/>
						</g>
					</g>
				</g>
				<g>
					<g>
						<g>
							<path class="st2" d="M1930.4,741.3c21.2,102.2,255.1-94.9,278.1-271.5c23-176.7-22.8-306.3,23.7-419.7
								C2232.1,50,1825.8,238.2,1930.4,741.3z"/>
						</g>
					</g>
				</g>
			</g>
			<g>
				<path class="st3" d="M1867.1,229.5c9.6,0,18.9,1.4,27.4,4c11.2-27.2,39-46.4,71.6-46.4c36.2,0,66.6,23.8,74.7,55.8
					c6.3-2.4,13.1-3.7,20.2-3.7c30.1,0,54.6,23.2,54.6,51.9h-79.8h-29.3h-62.4h-47.6h-106.2C1790.3,257,1824.7,229.5,1867.1,229.5z"
					/>
			</g>
			<g>
				<path class="st3" d="M2349.1,434.3c7.4,0,14.4,1.1,20.9,3.1c8.5-20.7,29.8-35.4,54.6-35.4c27.6,0,50.8,18.1,57,42.6
					c4.8-1.8,10-2.8,15.4-2.8c23,0,41.6,17.7,41.6,39.5h-60.9h-22.3h-47.6h-36.3h-81C2290.6,455.5,2316.8,434.3,2349.1,434.3z"/>
			</g>
		</g>
		
			<linearGradient id="SVGID_1_" gradientUnits="userSpaceOnUse" x1="791.9501" y1="-760.85" x2="2788.6501" y2="-760.85" gradientTransform="matrix(1 0 0 1 0 1488)">
			<stop  offset="0" style="stop-color:#6B9E34"/>
			<stop  offset="0.1351" style="stop-color:#61933C"/>
			<stop  offset="1" style="stop-color:#1F4A6E"/>
		</linearGradient>
		<path class="st4" d="M2390.9,588.3c-67.2,0-130.4,16.7-185.9,46.1c-108.3-147.5-282.9-243.2-479.8-243.2
			c-235.1,0-438.4,136.4-535,334.5c-34.9-15.3-73.4-23.8-113.9-23.8c-157,0-284.3,127.3-284.3,284.3c0,26.6,3.6,52.4,10.5,76.8
			h332.7h214.9h650.6h314.6h466c4.9-24.8,7.4-50.5,7.4-76.8C2788.6,766.3,2610.4,588.3,2390.9,588.3z"/>
		<g>
			
				<linearGradient id="SVGID_2_" gradientUnits="userSpaceOnUse" x1="345.15" y1="-328.7384" x2="345.15" y2="-478.2013" gradientTransform="matrix(1 0 0 1 0 1488)">
				<stop  offset="0" style="stop-color:#FF9F55"/>
				<stop  offset="1" style="stop-color:#FFD255"/>
			</linearGradient>
			<path class="st5" d="M628,1171.7H100.9c-21.2,0-38.5-17.2-38.5-38.5v-62.4c0-21.2,17.2-38.5,38.5-38.5h527.1L628,1171.7
				L628,1171.7z"/>
			<path class="st6" d="M718.5,1046.7v110.6h9.2v14.3h-382c-21.2,0-38.5-17.2-38.5-38.5v-62.4c0-21.2,17.2-38.5,38.5-38.5h382.1
				v14.3L718.5,1046.7L718.5,1046.7z"/>
			<path class="st7" d="M718.5,1157.3H373.9c-21.2,0-38.5-17.2-38.5-38.5v-33.7c0-21.2,17.2-38.5,38.5-38.5h344.6V1157.3
				L718.5,1157.3z"/>
			
				<linearGradient id="SVGID_3_" gradientUnits="userSpaceOnUse" x1="339.9" y1="-665.7395" x2="339.9" y2="-458.8369" gradientTransform="matrix(1 0 0 1 0 1488)">
				<stop  offset="0" style="stop-color:#40D5E6"/>
				<stop  offset="1" style="stop-color:#5577FF"/>
			</linearGradient>
			<path class="st8" d="M652.5,1032.3h-577c-26.7,0-48.3-21.6-48.3-48.3v-65.4c0-26.7,21.6-48.3,48.3-48.3h577V1032.3L652.5,1032.3z
				"/>
			<path class="st9" d="M755,886.8v128.7h8v16.7H449c-26.7,0-48.3-21.6-48.3-48.3v-65.4c0-26.7,21.6-48.3,48.3-48.3h313.8v16.7
				L755,886.8L755,886.8z"/>
			<path class="st7" d="M755,1015.6H473.3c-26.7,0-48.3-21.6-48.3-48.3v-32.1c0-26.7,21.6-48.3,48.3-48.3h281.6L755,1015.6
				L755,1015.6z"/>
			
				<linearGradient id="SVGID_4_" gradientUnits="userSpaceOnUse" x1="482.3" y1="-655.8126" x2="482.3" y2="-810.4994" gradientTransform="matrix(1 0 0 1 0 1488)">
				<stop  offset="0" style="stop-color:#FF9F55"/>
				<stop  offset="1" style="stop-color:#FFD255"/>
			</linearGradient>
			<path class="st10" d="M236.9,870.2h438.6c28.9,0,52.3-23.4,52.3-52.3v-94.1c0-28.9-23.4-52.3-52.3-52.3H236.9V870.2L236.9,870.2z
				"/>
			<path class="st6" d="M158.3,691.9v157.8h-8v20.5H463c28.9,0,52.3-23.4,52.3-52.3v-94.1c0-28.9-23.4-52.3-52.3-52.3H150.3V692
				L158.3,691.9L158.3,691.9z"/>
			<path class="st7" d="M158.3,849.8h276.5c28.7,0,52-23.3,52-52v-53.8c0-28.7-23.3-52-52-52H158.3V849.8z"/>
			
				<linearGradient id="SVGID_5_" gradientUnits="userSpaceOnUse" x1="305.25" y1="-1071.71" x2="305.25" y2="-897.9302" gradientTransform="matrix(1 0 0 1 0 1488)">
				<stop  offset="0" style="stop-color:#40D5E6"/>
				<stop  offset="1" style="stop-color:#5577FF"/>
			</linearGradient>
			<path class="st11" d="M565.3,671.4h-465c-30.4,0-55-24.6-55-55v-88.7c0-30.4,24.6-55,55-55h465V671.4L565.3,671.4z"/>
			<path class="st9" d="M648.5,493.2V651h8.5v20.5H325.4c-30.4,0-55-24.6-55-55v-88.7c0-30.4,24.6-55,55-55h331.7v20.5L648.5,493.2
				L648.5,493.2z"/>
			<path class="st7" d="M648.5,650.9H354c-30.2,0-54.8-24.5-54.8-54.8v-48.3c0-30.2,24.5-54.8,54.8-54.8h294.5V650.9z"/>
			
				<linearGradient id="SVGID_6_" gradientUnits="userSpaceOnUse" x1="436.45" y1="-1157.397" x2="436.45" y2="-1018.4004" gradientTransform="matrix(1 0 0 1 0 1488)">
				<stop  offset="0" style="stop-color:#40D5E6"/>
				<stop  offset="1" style="stop-color:#5577FF"/>
			</linearGradient>
			<path class="st12" d="M696.5,472.7H210.5c-18.8,0-34.1-15.3-34.1-34.1v-82.1c0-18.8,15.3-34.1,34.1-34.1h485.9L696.5,472.7
				L696.5,472.7z"/>
			<path class="st9" d="M779.7,337.8v119.4h8.5v15.5H435.7c-18.8,0-34.1-15.3-34.1-34.1v-82.1c0-18.8,15.3-34.1,34.1-34.1h352.5
				v15.5L779.7,337.8L779.7,337.8z"/>
			<path class="st7" d="M779.7,457.2H461.5c-18.8,0-34.1-15.3-34.1-34.1v-51.2c0-18.8,15.3-34.1,34.1-34.1h318.1V457.2z"/>
		</g>
		<g>
			
				<linearGradient id="SVGID_7_" gradientUnits="userSpaceOnUse" x1="-4476.9053" y1="-594.3" x2="-4773.3682" y2="-594.3" gradientTransform="matrix(-1 0 0 1 -2355.2983 1488)">
				<stop  offset="0" style="stop-color:#FF9F55"/>
				<stop  offset="1" style="stop-color:#FFD255"/>
			</linearGradient>
			<path class="st13" d="M2018.9,968.3h420.7c15.2,0,27.5-12.3,27.5-27.5v-94.1c0-15.2-12.3-27.5-27.5-27.5h-420.7V968.3z"/>
			
				<linearGradient id="SVGID_8_" gradientUnits="userSpaceOnUse" x1="-4337.6396" y1="-347.5" x2="-4631.2305" y2="-347.5" gradientTransform="matrix(-1 0 0 1 -2355.2983 1488)">
				<stop  offset="0" style="stop-color:#FF9F55"/>
				<stop  offset="1" style="stop-color:#FFD255"/>
			</linearGradient>
			<path class="st14" d="M1886.3,1191.6h512.7c10.9,0,19.8-8.8,19.8-19.8v-62.5c0-10.9-8.8-19.8-19.8-19.8h-512.7V1191.6
				L1886.3,1191.6z"/>
			<path class="st15" d="M1831.7,1100.8v79.7h-13.5v11.1h240.5c7.5,0,13.6-6.1,13.6-13.7v-74.6c0-7.5-6.1-13.7-13.6-13.7h-240.5
				v11.1L1831.7,1100.8L1831.7,1100.8z"/>
			<path class="st16" d="M1831.7,1180.4h215.3c7.2,0,13.1-5.9,13.1-13.1v-53.5c0-7.2-5.9-13.1-13.1-13.1h-215.3L1831.7,1180.4
				L1831.7,1180.4z"/>
			<path class="st15" d="M1947.3,834.4v118.4h-7.3v15.3h304.8c15.7,0,28.4-12.7,28.4-28.4v-92.3c0-15.7-12.7-28.4-28.4-28.4h-304.8
				v15.3L1947.3,834.4L1947.3,834.4z"/>
			<path class="st16" d="M1947.3,952.8h281.9c15.7,0,28.4-12.7,28.4-28.4v-61.6c0-15.7-12.7-28.4-28.4-28.4h-281.9V952.8z"/>
			
				<linearGradient id="SVGID_9_" gradientUnits="userSpaceOnUse" x1="-4989.1377" y1="-459.0999" x2="-4429.1592" y2="-459.0999" gradientTransform="matrix(-1 0 0 1 -2355.2983 1488)">
				<stop  offset="0" style="stop-color:#609FF0"/>
				<stop  offset="1" style="stop-color:#5A3F9E"/>
			</linearGradient>
			<path class="st17" d="M2109.9,1089.6h413c19.4,0,35.1-15.7,35.1-35.1v-51.1c0-19.4-15.7-35.1-35.1-35.1h-413V1089.6z"/>
			<path class="st18" d="M2038.1,980.8v96.4h-7.3v12.5h298.1c19.4,0,35.1-15.7,35.1-35.1v-51.1c0-19.4-15.7-35.1-35.1-35.1h-298.1
				v12.5L2038.1,980.8L2038.1,980.8z"/>
			<path class="st16" d="M2038.1,1077.1h276.2c19.4,0,35.1-15.7,35.1-35.1v-26.1c0-19.4-15.7-35.1-35.1-35.1h-276.1L2038.1,1077.1
				L2038.1,1077.1z"/>
			<rect x="2086.8" y="1011.4" class="st19" width="118.3" height="3"/>
			<rect x="2134.3" y="1020.8" class="st19" width="126.3" height="3"/>
			<rect x="1860.1" y="1121.3" class="st19" width="118.3" height="3"/>
			<rect x="1907.6" y="1130.6" class="st19" width="126.3" height="3"/>
			<rect x="1994.1" y="1139.1" class="st19" width="52.3" height="3"/>
			<rect x="2085.6" y="914.6" class="st19" width="126.3" height="3"/>
			<rect x="2075.1" y="922.9" class="st19" width="52.3" height="3"/>
			<path class="st20" d="M2093.9,934.7c0-1.5,1.6-3.9,4.2-1.8c2.6,2-0.6,9.3-2.7,8.7C2093.4,940.8,2093.9,936.2,2093.9,934.7z"/>
		</g>
		<g>
			
				<linearGradient id="SVGID_10_" gradientUnits="userSpaceOnUse" x1="1157.2501" y1="-1269.45" x2="1407.2499" y2="-1269.45" gradientTransform="matrix(1 0 0 1 0 1488)">
				<stop  offset="0" style="stop-color:#FF9F55"/>
				<stop  offset="1" style="stop-color:#FFD255"/>
			</linearGradient>
			<path class="st21" d="M1386.6,191.5c-2.5-9.8-6.4-19.1-11.5-27.6l11.7-17.5l-16.2-16.2l-16.2-16.2l-17.5,11.7
				c-8.5-5-17.8-8.9-27.6-11.5l-4.2-20.6h-22.8h-22.9l-4.2,20.6c-9.8,2.5-19.1,6.4-27.6,11.5l-17.5-11.7l-16.2,16.2l-16.2,16.2
				l11.7,17.5c-5,8.5-8.9,17.8-11.5,27.6l-20.6,4.2v22.9v22.9l20.6,4.2c2.5,9.8,6.4,19.1,11.5,27.6l-11.7,17.5l16.2,16.2l16.2,16.2
				l17.5-11.7c8.5,5,17.8,8.9,27.6,11.5l4.2,20.6h22.9h22.9l4.2-20.6c9.8-2.5,19.1-6.4,27.6-11.5l17.5,11.7l16.2-16.2l16.2-16.2
				l-11.7-17.5c5-8.5,8.9-17.8,11.5-27.6l20.6-4.2v-22.9v-22.9L1386.6,191.5z M1282.3,298.7c-44.3,0-80.2-35.9-80.2-80.2
				s35.9-80.2,80.2-80.2s80.2,35.9,80.2,80.2S1326.6,298.7,1282.3,298.7z"/>
		</g>
		<g>
			
				<linearGradient id="SVGID_11_" gradientUnits="userSpaceOnUse" x1="1415.344" y1="-1377.05" x2="1529.8979" y2="-1377.05" gradientTransform="matrix(1 0 0 1 0 1488)">
				<stop  offset="0" style="stop-color:#FF9F55"/>
				<stop  offset="1" style="stop-color:#FFD255"/>
			</linearGradient>
			<path class="st22" d="M1520.4,98.5c-1.2-4.5-2.9-8.8-5.3-12.7l5.3-8l-7.4-7.4l-7.4-7.4l-8,5.3c-3.9-2.3-8.2-4.1-12.7-5.3
				l-1.9-9.5h-10.5H1462l-1.9,9.5c-4.5,1.2-8.8,2.9-12.7,5.3l-8-5.3l-7.4,7.4l-7.4,7.4l5.3,8c-2.3,3.9-4.1,8.2-5.3,12.7l-9.5,1.9
				v10.5v10.5l9.5,1.9c1.2,4.5,2.9,8.8,5.3,12.7l-5.3,8l7.4,7.4l7.4,7.4l8-5.3c3.9,2.3,8.2,4.1,12.7,5.3l1.9,9.5h10.5h10.5l1.9-9.5
				c4.5-1.2,8.8-2.9,12.7-5.3l8,5.3l7.4-7.4l7.4-7.4l-5.3-8c2.3-3.9,4.1-8.2,5.3-12.7l9.5-1.9v-10.5v-10.5L1520.4,98.5z
				 M1472.7,147.7c-20.3,0-36.7-16.5-36.7-36.7s16.5-36.7,36.7-36.7c20.3,0,36.7,16.5,36.7,36.7S1492.9,147.7,1472.7,147.7z"/>
		</g>
		<path class="st3" d="M1762.8,1031.7H925.3c-30.9,0-55.9-25-55.9-55.9V430.5c0-30.9,25-55.9,55.9-55.9h837.4
			c30.9,0,55.9,25,55.9,55.9v545.3C1818.7,1006.7,1793.7,1031.7,1762.8,1031.7z"/>
		<rect x="1340.2" y="367.3" class="st23" width="7.8" height="672.1"/>
		<g>
			<rect x="933.4" y="443.8" class="st24" width="348.8" height="13.2"/>
			<rect x="933.4" y="492.2" class="st24" width="348.8" height="13.2"/>
			<rect x="933.4" y="540.5" class="st24" width="348.8" height="13.2"/>
			<rect x="933.4" y="588.8" class="st24" width="348.8" height="13.2"/>
			<rect x="933.4" y="637.2" class="st24" width="348.8" height="13.2"/>
			<rect x="933.4" y="685.4" class="st24" width="348.8" height="13.2"/>
			<rect x="933.4" y="733.8" class="st24" width="348.8" height="13.2"/>
			<rect x="933.4" y="782.2" class="st24" width="348.8" height="13.2"/>
			<rect x="933.4" y="830.4" class="st24" width="348.8" height="13.2"/>
			<rect x="933.4" y="878.8" class="st24" width="348.8" height="13.2"/>
			<rect x="933.4" y="927.1" class="st24" width="348.8" height="13.2"/>
		</g>
		<g>
			<rect x="1403.8" y="443.8" class="st24" width="348.8" height="13.2"/>
			<rect x="1403.8" y="492.2" class="st24" width="348.8" height="13.2"/>
			<rect x="1403.8" y="540.5" class="st24" width="348.8" height="13.2"/>
			<rect x="1403.8" y="588.8" class="st24" width="348.8" height="13.2"/>
			<rect x="1403.8" y="637.2" class="st24" width="348.8" height="13.2"/>
			<rect x="1403.8" y="685.4" class="st24" width="348.8" height="13.2"/>
			<rect x="1403.8" y="733.8" class="st24" width="348.8" height="13.2"/>
			<rect x="1403.8" y="782.2" class="st24" width="348.8" height="13.2"/>
			<rect x="1403.8" y="830.4" class="st24" width="348.8" height="13.2"/>
			<rect x="1403.8" y="878.8" class="st24" width="348.8" height="13.2"/>
			<rect x="1403.8" y="927.1" class="st24" width="348.8" height="13.2"/>
		</g>
		<g>
			<g>
				<g>
					<path class="st20" d="M1542.4,558.7c0,0-5.3-9.3,3.1-34.1c8.1-24,36.3-21.9,45.2-6.5c8.9,15.4,5.9,25-7.2,42.4
						S1547.9,566.7,1542.4,558.7z"/>
				</g>
			</g>
			<g>
				<g>
					<path class="st20" d="M1607.8,986.3c0,0,1.4,10.2,1.6,11.7s15.5-0.9,15.5-0.9l1.2-12.2C1626.2,985.1,1609.8,984.9,1607.8,986.3
						z"/>
				</g>
			</g>
			<g>
				<g>
					<path class="st25" d="M1609.3,996.8c0,0-4.9,6.2-9.5,8.8c-4.7,2.7-12.1,3.7-14.8,6.5c-2,2-7.3,10.6,12.2,10.5
						c19.5-0.2,28.9,1.2,31-2.1c2.1-3.3-3-24.4-3-24.4S1620.3,997.4,1609.3,996.8z"/>
				</g>
			</g>
			<g>
				<g>
					<path class="st20" d="M1501.8,986.3c0,0,1.4,10.2,1.6,11.7s15.5-0.9,15.5-0.9l1.2-12.2C1520.1,985.1,1503.7,984.9,1501.8,986.3
						z"/>
				</g>
			</g>
			<g>
				<g>
					<path class="st25" d="M1503.2,996.8c0,0-4.9,6.2-9.5,8.8s-22,4.9-24.7,7.7c-2,2-5.3,10.1,22.1,9.3c19.5-0.5,28.9,1.2,31-2.1
						c2.1-3.3-3-24.4-3-24.4S1512.8,997.3,1503.2,996.8z"/>
				</g>
			</g>
			<g>
				<g>
					<path class="st26" d="M1602.7,732.2c0,0,7.9,24.4,6.8,45.4c-1,21,4.1,44,6.1,66c2.3,24.5,11.8,82.5,12.2,95.6
						c0.3,13.1-1.5,54.9-1.5,54.9l-19,0.5c0,0-16-101.4-20.1-111.7c-4.1-10.3-24.7-84.1-25.3-92.4S1602.7,732.2,1602.7,732.2z"/>
				</g>
			</g>
			<g>
				<g>
					<path class="st26" d="M1523.8,729.7c0,0-11.5,64.5-12.9,77.4s-2.3,62.3-3,70.3s-4.6,105.3-8.3,117.2h21.2
						c0,0,21.8-70.7,21.8-104.1s14.4-72.7,23.7-94.8c9.3-22.1,30.6-22.6,36.3-63.5C1602.7,732.2,1531.6,716.7,1523.8,729.7z"/>
				</g>
			</g>
			<g>
				<g>
					<path class="st20" d="M1550.2,565.3c0,0,2.4,7,0,11.9c-2.4,5,30.6,2,30.6,2s-1.5-10.3,2.8-18.7
						C1587.8,552,1550.2,565.3,1550.2,565.3z"/>
				</g>
			</g>
			<g>
				<g>
					<path class="st26" d="M1604.3,737.4c0,0-11.9,12.2-81.5-1.9l1.1-6l79.1,3L1604.3,737.4z"/>
				</g>
			</g>
			<g>
				<g>
					<path class="st20" d="M1545.2,578.8c0,0-12.2,1.2-15.7,1.9s-26.9-4.2-31.7-4.7c-4.8-0.5-25.3-14.5-25.9-16.2
						c-0.7-1.7-12.5-31.5-13.1-38c-0.7-6.5-11.5-3.1-10.6,1.3c1.7,8.3,4,28.5,5.2,34.4c1.3,6.3,4.9,20.7,6.8,22.4
						c2,1.8,20.4,15.8,38.5,21.8s31.6,14.7,31.6,14.7h89c0,0,34.6-49.5,35.4-56.9s-24.2-57-29.1-63.2s-12.2,2-12.2,2
						s14.9,43.7,16.9,49.9s-17.3,33.5-22.6,33.6c-5.3,0.1-18.9-1.7-25-1.9c-6-0.2-12.4-2.9-12.4-2.9L1545.2,578.8z"/>
				</g>
			</g>
			<g>
				<g>
					<path class="st27" d="M1506.8,611.8c0,0,10.9,7.2,11.9,19.7c1,12.4,5,32.1,7,38.8s-1.7,55.4-2.2,58.9s68.9,11.7,79.5,3.5
						c0,0,3-45.5,4.2-58.4s7.2-44.2,9.2-48.4s26.1-38,27.1-42.5c0,0-12.5-19.9-21.4-20.1c0,0-14.2,16.6-18.8,17.4s-33-4.5-33-4.5
						s-3.1,4.2-19.6-0.8c0,0-19.6,2.2-22.8,2.6c-3.9,0.5-30.7-3.4-30.7-3.4s-10.8,18.2-8.9,27.4L1506.8,611.8z"/>
				</g>
			</g>
			<g>
				<g>
					<path class="st20" d="M1459.3,525.7c0,0-2.4-11.5,0.5-14.8c1.7-1.9,5.7-6.9,6-7.6c0.4-0.7,4.7-3.2,4.7-4.4s-4.2-2.7-7.9,0.7
						c-3.7,3.4-5.9,4.1-7.4,3.8c-1.5-0.4-3.6-12.5-3.8-15.6c-0.2-3-1.3-11-3.2-10.4c-1.9,0.5-1.8,4-1.8,4s-2.2-6-3.7-4.9
						c-1.5,1.2-1.3,4.1-1.3,4.1s-2.7-3.4-3.5-0.9s0,4.7,0,4.7s-2.8-1.6-3,2.3c-0.2,3.8,0.8,15.1,2.8,19.1s9.6,14.6,10.4,18.7
						C1449.3,528.7,1459.3,525.7,1459.3,525.7z"/>
				</g>
			</g>
			<g>
				<g>
					<path class="st20" d="M1615.8,505.5c0,0-8.3-13.9-11.1-15.2c-2.8-1.2-6.8-1.9-10.3-4.4s-8.1-4.6-7.8-5.4
						c0.2-0.8,4.3-0.5,8.7,1.4c4.4,1.9,6.3,1,6.7,0c0.4-1-2.3-8-3.7-9.7s-10.8-11.2-9.2-12.6c1.6-1.4,7.7,3.8,8.7,4.9
						c0,0-4.9-10.3-3-10.8s5.5,3.1,5.5,3.1s-0.4-8.8,9,5.5c0,0-2-4.7,0.9-3.1c2.9,1.6,5.7,10.4,6.6,14.9s5,18.7,8.6,22.2
						C1629.1,499.8,1615.8,505.5,1615.8,505.5z"/>
				</g>
			</g>
			<g>
				<g>
					<path class="st28" d="M1583.6,560.5c0,0-4.4,0.4-13.6-2.8c-9.3-3.2-10-19.4-12-17.5c-4.1,3.9-8,1.2-9.5-1.1c0,0,4.5-6,2.4-8.8
						c-2.1-2.9-5.5-5-5.5-5s6.5-31.4,36.2-17.1C1616.3,524.8,1583.6,560.5,1583.6,560.5z"/>
				</g>
			</g>
			<g>
				<g>
					<path class="st27" d="M1550.2,577.2l1-4.5c0,0,18.9-0.4,29.3,1.1l1.1,5.4C1581.6,579.2,1568.3,585.2,1550.2,577.2z"/>
				</g>
			</g>
			<g>
				<g>
					<path class="st20" d="M1554.8,536.2c1.7-2.9,8.1-4.8,8.8,3.3c0.6,6.3-11.4,13.1-11.5,7.3C1552.1,540.8,1553.7,538,1554.8,536.2
						z"/>
				</g>
			</g>
			<g>
				<g>
					<path class="st29" d="M1458.9,523c0,0-6.8,0.2-10.2,3.2c0,0-0.2,1.9,0.6,3.4c0,0,5.9-2.8,10.5-3.3
						C1459.8,526.3,1459.8,523.8,1458.9,523z"/>
				</g>
			</g>
			<g>
				<g>
					<path class="st28" d="M1450.8,524.8c-0.6,1.5,0.1,3.2,1.6,3.9c1.5,0.6,3.2-0.1,3.9-1.6c0.6-1.5-0.1-3.2-1.6-3.9
						C1453.3,522.5,1451.6,523.3,1450.8,524.8z"/>
				</g>
			</g>
			<g>
				<polygon class="st30" points="1645.3,1025.6 1459.7,1025.6 1518.2,1205.3 1512.8,1207.2 1451.8,1019.8 1649.6,1019.8 
					1709.9,1205.3 1704.4,1207.2 				"/>
			</g>
			<g>
				<polygon class="st30" points="1582.2,1205.3 1640.7,1025.6 1454.9,1025.6 1395.8,1207.2 1390.3,1205.3 1450.8,1019.8 
					1648.7,1019.8 1587.7,1207.2 				"/>
			</g>
			<g>
				<rect x="1435.3" y="1076.4" class="st30" width="227.3" height="5.8"/>
			</g>
			<g>
				<rect x="1414.1" y="1138.9" class="st30" width="272" height="5.8"/>
			</g>
		</g>
		<g>
			<g>
				<path class="st31" d="M2056.4,962.6c0,0,1.2,10.1,2.9,14.5c1.6,4.5,10.5,14.7,6.8,24.6c-4.1,10.7-21.9,0.4-29.1-2.9
					s-5.6-9.2-6.4-16.4c-0.8-7.3-4.3-7.5-3-12.6s9.3-14.9,9.3-14.9L2056.4,962.6z"/>
			</g>
			<g>
				<g>
					<path class="st20" d="M2040.3,949.7c0,0-4.6,6.4-4.4,6.6c0.1,0.2,19.5,12,20.9,8.2c1.1-3,1.5-7.5,1.5-7.5L2040.3,949.7z"/>
				</g>
			</g>
			<g>
				<path class="st31" d="M1974.4,969.7c0,0-5.9,5.2-11.2,13.2s-19.4,8.4-20,19.3s19.2,11.2,29.6,7.7c10.4-3.5,12-14.2,18.2-16.8
					c6.3-2.7,9.5-4.8,9.1-10s-4-13.6-4-13.6s-3.9,1.2-6.2,1.5C1987.6,971.2,1979.9,971.2,1974.4,969.7z"/>
			</g>
			<g>
				<path class="st16" d="M2045.6,674.8c0,0-4,23.7-7.2,39.3l0,0c-1.3,6.3-2.5,11.4-3.2,12.9c-0.9,2-8.4,10-17.5,19.4
					c-16,16.5-37.2,37.3-37.2,37.3l-8.3-15.7c0,0,18.8-22.1,31.6-36.8c5.9-6.8,10.5-12.1,11.4-12.8c2.7-2.4,5.8-25.9,10.1-45.3
					c4.4-19.4,13.1-30.1,13.1-30.1L2045.6,674.8z"/>
			</g>
			<g>
				<path class="st20" d="M2017.8,746.6c-16,16.5-37.2,37.3-37.2,37.3l-8.3-15.7c0,0,18.8-22.1,31.6-36.8
					C2007.8,733.3,2014.9,737.8,2017.8,746.6z"/>
			</g>
			<g>
				<path class="st20" d="M1975.4,962.4l-0.9,7.2c0,0,10.3,3.6,21.6-0.3l0.2-6.4L1975.4,962.4z"/>
			</g>
			<g>
				<path class="st16" d="M2121.6,780.7c0.6,2.1-109.1,0-109.1,0s30.3-22.1,32.3-28s-7.7-41.3-9-52.8c-1-9.2-3.5-50.5,2.5-56.7
					c6.4-6.6,29.2-13.5,29.2-13.5l33.3,1.2c0,0,5.5,1.2,9.4,3s26.4,9.8,30.1,21.1c3.7,11.2-22.4,47.4-22.4,47.4s-0.1,1.6-0.1,4.3
					l0,0c-0.1,3.5-0.3,8.9-0.4,14.8c-0.2,7.6-0.3,15.9-0.3,22C2117.1,757.7,2121.1,778.6,2121.6,780.7z"/>
			</g>
			<g>
				<path class="st32" d="M2121.6,780.7c0,0,14.9,21.9,15.1,36.9s-26.5,65.1-30.5,72.2c-12.1,21.5-45.4,68-45.4,68
					s-5.7-0.1-23.6-7.1c0,0,22.1-61.4,25-67.8c11.9-27,18.6-46.2,14.5-50.8c-4-4.6-14.9-9.3-18.1-12s-58.2,10.4-64,11.9
					c-14.9,3.9-8.1,29.9-4.8,41.5c5.5,19.5,10.4,89.9,10.4,89.9s-10.6,4.5-28.5,0.7c0,0-35-127.1-36.1-139.8
					c-1.1-12.6-1.7-33.5,84.6-49.3L2121.6,780.7z"/>
			</g>
			<g>
				<path class="st20" d="M2076.8,557.2c0,0-28.9-6.5-22.3,29.9c6.6,36.4,13.6,39.3,31,31.7c17.5-7.5,15.9-30.9,16.8-42.3
					C2103.1,565,2085.9,557.5,2076.8,557.2z"/>
			</g>
			<g>
				<path class="st20" d="M2069.1,639c0,0,12.8,13.6,33.1,1.2c0,0-4.5-29.4-2.1-43.8c2.4-14.3-26.4,22.2-26.4,22.2
					c0.4,0.2,0.6,1.6,0.7,3.5c0.1,1.7,0,3.7-0.3,5.8C2073.4,632.8,2071.9,637.8,2069.1,639z"/>
			</g>
			<g>
				<path class="st33" d="M2100.8,595.3c0,0-0.7-11.5-4.9-11.8s-4.8,4.3-4.8,4.3l-4.2,0.8c0,0,1.3-10.1-2.8-11.8
					c-4.2-1.8-27.1,5.5-30.5,2.6c-3.4-3-1.8-23.4,4.3-26.1c6.1-2.8,22.9-9,35.1-0.7c0,0,9.6-1.1,11,6.6
					C2105.4,566.8,2103.4,589.5,2100.8,595.3z"/>
			</g>
			<g>
				<path class="st34" d="M2073.9,628c20.9-6.4,22.5-19,22.5-19.2c-6.9,11.8-22.2,13.4-22.2,13.4
					C2074.3,623.8,2074.3,625.8,2073.9,628z"/>
			</g>
			<g>
				<path class="st20" d="M2110.6,634c0,0-15.3,30.5-40,28.5s-4.2-32.6-3.1-32.9C2068.9,629.3,2092.9,623.3,2110.6,634z"/>
			</g>
			<g>
				<path class="st16" d="M1999.9,779.2c0,0,75.7,9.3,121.6,1.5l-87.7-11C2033.9,769.8,2033.4,771.9,1999.9,779.2z"/>
			</g>
			<g>
				<path class="st20" d="M2056.6,766.3l-5.6,2.9c0,0,1.3,9,4.4,11.7l6.3-1.6C2061.6,779.2,2060.4,769.3,2056.6,766.3z"/>
			</g>
			<g>
				<path class="st16" d="M2144.3,747.9c-1.1,1.3-16,7.3-32.8,13.8l0,0c-23,8.9-48.9,17.2-48.9,17.2l-5.9-12.6
					c0,0,27.1-14.8,45.5-25.1c8.7-4.9,15.4-8.8,16.3-9.7c2.9-2.8,3.7-7.3,1.5-15.2c-2.2-7.9-7.2-44-7.7-48.2
					c-0.6-4.2,1.4-15.5,11.9-16s15.9,2.4,15.9,2.4s2.6,1.1,4.6,26.7C2146.6,706.8,2146.9,744.8,2144.3,747.9z"/>
			</g>
			<g>
				<path class="st35" d="M2117.9,706.6L2117.9,706.6c-0.1,3.6-0.3,8.9-0.4,14.8c-10.3-25.2-4.3-45.3-4.2-45.7
					C2112.1,682.6,2117.8,706.3,2117.9,706.6z"/>
			</g>
			<g>
				<path class="st35" d="M2038.4,714.2L2038.4,714.2c-1.3,6.3-2.5,11.4-3.2,12.9c-3.5-17-0.4-38.8-0.4-38.8
					C2035.4,698.8,2038.4,714.2,2038.4,714.2z"/>
			</g>
			<g>
				<path class="st20" d="M2111.4,761.7L2111.4,761.7c-23,8.9-49.7,17.5-49.7,17.5l-5.1-12.9c0,0,27.1-14.8,45.5-25.1
					C2102.1,741.2,2108.8,744.4,2111.4,761.7z"/>
			</g>
			<g>
				<polygon class="st36" points="2054.9,779.9 1947.4,778.3 2001.6,805.9 				"/>
			</g>
			<g>
				<polygon class="st37" points="2001.6,805.9 2054.9,785.3 2054.9,779.9 1997.4,800.7 				"/>
			</g>
			<g>
				<g>
					<path class="st20" d="M2052.1,769.3c0,0-6.7-1-11.4-2.1c-3.6-0.8-12.5,0.3-14.8,2.6s-9.5,18.4-10.9,19.4s0.7,3.3,3.1,2.1
						c0,0,2.2,7,7.7,4.4s9.2-8.4,12-9.4c2.9-1,19.5-6.1,19.5-6.1S2056.4,767.6,2052.1,769.3z"/>
				</g>
			</g>
			<g>
				<g>
					<path class="st20" d="M2027.6,768.8c0,0-4.3,2.1-5.4,3c-1.1,0.9-5.7,4.4-6.8,5.2c-1.1,0.8,1.7,3.1,9.8-0.4
						C2033.4,772.9,2027.6,768.8,2027.6,768.8z"/>
				</g>
			</g>
			<g>
				<polygon class="st37" points="2001.6,805.9 1969.6,718.6 1866.4,720.2 1896.9,800.8 				"/>
			</g>
			<g>
				<path class="st38" d="M1936.6,757.2c3.1,6.3,2.2,13.2-2.1,15.3c-4.3,2.2-10.4-1.2-13.5-7.5s-2.2-13.2,2.1-15.3
					C1927.4,747.6,1933.4,750.8,1936.6,757.2z"/>
			</g>
			<g>
				<path class="st20" d="M2091.1,582.8c0.4-3.2,6.7-4.4,7.2,0.4c0.5,4.8-2.9,13.3-5.3,12.4C2090.6,594.8,2090.6,587.3,2091.1,582.8
					z"/>
			</g>
		</g>
		<g>
			<g>
				<g>
					<g>
						<g>
							<path class="st20" d="M1280.2,934.1c0,0-1,5.6-4.2,6.5c-2.7,0.7-5.7,3.6-6.6,4.4c-1.2,1.2-6.3,3.4-4.9,4.9
								c1.5,1.6,8.6-3.2,10.3-3.9s-0.7,7.1,0,8.9s13.9,5.1,14.9-0.5s-1.5-12.2-1.1-13.2s0.9-4,0.9-4L1280.2,934.1z"/>
						</g>
					</g>
				</g>
			</g>
			<g>
				<g>
					<g>
						<g>
							<path class="st20" d="M1274.7,953.6c0,0-2.1,17.3-1.2,18.5s1.8,1.3,2-0.3c0.3-1.6,2.5-16.6,2.5-16.6s1,20.8,1.5,22
								c0.3,0.7,2.1,0.9,2.3,0.1c0.2-0.8,0.4-21.6,0.4-21.6s1,19.5,1.6,20.3s2.3,0.6,2.3-0.9c0-1.4,0.1-19.6,0.1-19.6
								s1.6,14.1,2.6,14.5c0.6,0.3,2.2,0.5,1.7-3.1s-0.9-12.3-0.9-12.3L1274.7,953.6z"/>
						</g>
					</g>
				</g>
			</g>
			<g>
				<path class="st20" d="M1094.7,722.2c0,0-2.8-5.3-3.8-9.5s-6.2-9.9-8.4-11.2s-17.7-12.5-19.5-12.5s-0.8,3.5,0.8,4.5
					c1.6,1,14.2,10.9,14.2,10.9s-15.7-10.9-17.4-10.6s-2.8,2.4-1.1,4.5c0,0-3.6,2.4,0.2,5.2l7.4,5.8c0,0-4.4-2.3-2.8,1.2
					c0.9,1.9,10,7.3,11.5,9s13,7.3,13,7.3L1094.7,722.2z"/>
			</g>
			<g>
				<path class="st20" d="M1186.9,1206.2h-3.9c0,0,1.3-14.7-2.3-14.9c-3.6-0.1-12.6,12-17.9,13.9s-32.8,3.5-33-1.6
					c-0.1-5.1,10.5-7.1,13.9-8.5c3.3-1.4,19.5-17.2,22.4-19.1s7.7-11.4,7.7-11.4h14.7c0,0,1.6,8,2.5,14.5c0.3,2.4,0.6,4.6,0.6,6.1
					C1191.8,1190.6,1186.9,1206.2,1186.9,1206.2z"/>
			</g>
			<g>
				<path class="st20" d="M1254.8,1203.3h-3.3v-13.7c-2.7,0.2-11.8,8.8-14.6,11.3c-2.8,2.5-6.7,2.4-18.6,3.1
					c-11.9,0.8-13-6.4-11.1-8.8s8-3.5,11.1-5c3.2-1.5,15.6-15.6,19-18.9c3.3-3.3,5.3-12.9,5.3-12.9l13.9,1.2c0,0-0.1,8.7,1.5,16l0,0
					c0,0,0,0,0,0.1c0.1,0.6,0.3,1.2,0.4,1.8C1260.4,1185.3,1254.8,1203.3,1254.8,1203.3z"/>
			</g>
			<g>
				<path class="st20" d="M1222.3,744.6c0,0,6.8,14.3,3.2,26c0,0,20.8-2.8,21.5-5.3s-2.6-24.3-0.2-31.1
					C1249.1,727.6,1222.3,744.6,1222.3,744.6z"/>
			</g>
			<g>
				<path class="st39" d="M1221.8,765.8c0,0-12.1,5.2-17.6,6.8s-16.8,7.8-14.4,28.1c2.4,20.2,7.2,37.6,9.1,46.2s2.7,30.9,1.4,41.8
					c0,0,30.2,5.1,64.5-4.7c0,0-7.5-17.9-7.7-22.7s17.4-45.4,17.9-51.7c0.5-6.3,2.7-33.8-7.1-39.2s-17.3-4-21.5-6.4
					S1227.4,763.4,1221.8,765.8z"/>
			</g>
			<g>
				<path class="st39" d="M1221.8,797.3c0,0,4.6-24.3-18.9-24.3c-20.7,0-40.3-3.9-43.5-5.7c-3.3-1.8-15.9-8-22.6-14.9
					c-6.7-6.8-42.7-34.2-42.7-34.2l-10,10.1c0,0,38,41.3,44.1,45.3s57.6,32.8,64.1,33.7C1198.9,808.2,1217.3,813.2,1221.8,797.3z"/>
			</g>
			<g>
				<path class="st39" d="M1295.8,872.3c0.7,8.6-4,67.6-4,67.6l-16.8,1.9c0,0,1.2-58.3,2.1-71.8c0.3-4-0.6-10-2.1-16.6l0,0
					c-0.9-4.2-2-8.6-3.2-12.8c-3.2-11.6-6.6-21.6-6.6-21.6s-18.8-48.8,4.8-46.8c0,0,8.7,9,12.4,23.8s7.9,37,8.1,45.8
					C1290.9,850.8,1295.3,866.1,1295.8,872.3z"/>
			</g>
			<g>
				<path class="st26" d="M1204.4,888.3c0,0-5.4,12.8-5.9,16s-17.4,45.4-18.6,57.8c-1.2,12.5-4.8,45.8-6,50.6
					c-1.3,4.8,2.9,26.1,3.5,30.8s0.3,82.7-5.4,121.2c0,0,13.4,5.7,23.5,0c0,0,16.9-60.1,15.9-94.8s-5.4-49.3,0-63.3s36.9-56,40-60.4
					c3.2-4.5,23.1-29.1,4.2-55.7C1236.8,863.8,1204.4,888.3,1204.4,888.3z"/>
			</g>
			<g>
				<path class="st26" d="M1269.6,1002.1c-1.7,11.1,0.1,25.8,3.6,66.5s-6.1,90-6.1,90c-12.1,4.1-26,0-26,0c0.3-2.9,0-99.2,0-107.8
					c0-8.6-2.5-18.3-3.1-28.2c-0.4-6.7-3.6-19.1-7.1-31.7c-1.1-3.8-2.1-7.6-3.2-11.3l0,0c-0.6-2.1-1.2-4.1-1.7-6.1
					c-5-17.2-11.6-83.5-11.6-83.5s36.9-29.7,54.9-1.7s8.7,48.3,8.1,51.8C1276.6,943.6,1271.2,990.9,1269.6,1002.1z"/>
			</g>
			<g>
				<path class="st39" d="M1197.9,838.2c0,0,3.3,52.7-6.5,82.3c0,0,39,6.5,88.7-10.3c0,0-13.7-35.4-13.2-40.9s14.9-70,8-84.4
					C1267.9,770.4,1200.4,790.9,1197.9,838.2z"/>
			</g>
			<g>
				<path class="st20" d="M1229.8,685.8c-8.9-0.4-31.7,3.1-27.4,37.4c4.2,34.3,16.6,31.3,28.9,26.8c12.3-4.6,25.2-32.3,24.7-39.4
					C1255.4,703.4,1255.3,686.8,1229.8,685.8z"/>
			</g>
			<g>
				<path class="st40" d="M1202.6,707.3c0,0,10.9,12,21.1,14.3c0,0,8.7,13.2,22.4,15.8c0,0,26.7-29.5,1.1-48.4
					C1221.6,670.3,1201.7,696.8,1202.6,707.3z"/>
			</g>
			<g>
				<path class="st20" d="M1221.4,717.1c0.2-1.9,4.1-6,7.6-2s-1.6,14.5-3.8,14.6C1222.9,729.8,1220.7,724.3,1221.4,717.1z"/>
			</g>
			<g>
				<path class="st41" d="M1254.2,942.3c-0.3,0.6-18.7,41.4-23.4,48.5c-1.1-3.8-2.1-7.6-3.2-11.3l0,0
					C1227.6,979.4,1253.6,943.2,1254.2,942.3z"/>
			</g>
			<g>
				<path class="st42" d="M1276.1,811.7c0,0,1.3,25.9-0.8,41.8c-0.9-4.2-2-8.6-3.2-12.8C1272.2,840.2,1275.7,815.8,1276.1,811.7z"/>
			</g>
			<g>
				<path class="st39" d="M1194.8,791.6c0,0-8,28.5-9.7,34.4c-2.2,7.8,8.9,19.2,17.8,14.7C1212.1,836.2,1194.8,791.6,1194.8,791.6z"
					/>
			</g>
			<g>
				<path class="st26" d="M1254.8,1203.3h-3.3v-13.7c-2.7,0.2-11.8,8.8-14.6,11.3c-2.8,2.5-6.7,2.4-18.6,3.1
					c-11.9,0.8-13-6.4-11.1-8.8s8-3.5,11.1-5c12.7,0.7,28.2-17.2,35.6-17.1c4,0,3.9,2.2,4,2.6l0,0c0,0,0,0,0,0.1
					c0.1,0.6,0.3,1.2,0.4,1.8C1260.4,1185.3,1254.8,1203.3,1254.8,1203.3z"/>
			</g>
			<g>
				<path class="st26" d="M1186.9,1206.2h-3.9c0,0,1.3-14.7-2.3-14.9c-3.6-0.1-12.6,12-17.9,13.9s-32.8,3.5-33-1.6
					c-0.1-5.1,10.5-7.1,13.9-8.5c11.3,0,29.7-12.5,35.5-15c5.7-2.5,11.9-1,11.9-1c0.3,2.4,0.6,4.6,0.6,6.1
					C1191.8,1190.6,1186.9,1206.2,1186.9,1206.2z"/>
			</g>
			<g>
				<path class="st40" d="M1236.7,683.7c0,0,31-0.7,26.3,52.6c-3.6,40.9,11.5,61.2,9.4,67.1c-2.1,6-9.4,15.9-25.7,6.9
					c-16.3-9-5.6-55.9-14.3-74.2c-8.7-18.3-27.9-26.7-27.9-26.7S1207.8,678.3,1236.7,683.7z"/>
			</g>
		</g>
		<g>
			<g>
				<g>
					<path class="st43" d="M774.7,1086.1c-3.3,7-49.4,70.2-52.2,77.4c-2.8,7.1-21.9,37.3-21.9,37.3l-11.7-8.2
						c0,0,30.4-85.9,39.9-97.8l0,0c0.2-0.3,0.4-0.5,0.6-0.7c1.2-1.2,2.5-2.4,3.7-3.7l0,0c8.1-8.1,10.9-15.4,4.8-23.7
						c-7-9.6-30.2-64.8-31.3-70.2c-1.1-5.4-42-79.4,45.4-49.1c0,0,14.8,46.2,16.9,80.2C771.3,1061.4,778,1079.1,774.7,1086.1z"/>
				</g>
			</g>
			<path class="st34" d="M733.2,1090.3c0,0,0,22.6-1,29.7c-0.9,7.1-1,17.1-1,17.1s-9.5-28.4-2.4-42.4l0,0c0.2-0.3,0.4-0.5,0.6-0.7
				C730.7,1092.8,731.8,1091.6,733.2,1090.3z"/>
			<g>
				<path class="st20" d="M823.3,813.4c0,0,2.7-6.7,3.7-8.2s-2.1-4.8-4.1-0.9c-2,4-3.2,6.5-3.2,6.5L823.3,813.4z"/>
			</g>
			<g>
				<path class="st44" d="M820.5,819.8l9.3-28.7c0.6-1.9-0.6-3.9-2.5-4.3l-13.9-2.7c-1.7-0.3-3.5,0.8-3.9,2.5l-7,29.5
					c-0.4,1.9,0.8,3.7,2.7,4l11.7,2C818.3,822.3,820,821.3,820.5,819.8z"/>
			</g>
			<g>
				<path class="st20" d="M824.3,817.8c0,0,1.2-2.5-2.9-6.6c-5.4-5.5-13-11.9-14.8-11.6c-2.6,0.4-2.1,2.4,1.6,5.3
					c3.6,2.9,4.8,3.8,4.8,3.8s-7.8-3.7-10-3.4c-2.2,0.3-3.1,2.5-1.9,3.4s4.2,2.2,4.2,2.2s-3.5-1.1-4.3,0.1c-0.6,0.9-1.3,2.3,1.7,4.1
					c0,0-3.1,1.6-0.4,4.4c2.7,2.8,3.1,4.5,2.7,8.1c-0.4,3.6,1.9,9.3,1.9,9.3l10.6-1.2c0,0,1.9-9.5,3.3-11.7
					C822.2,821.8,824.3,817.8,824.3,817.8z"/>
			</g>
			<path class="st26" d="M818.7,836.9c0,2.7-41.4,55.9-44.6,56c-5.1,0.1-11.4-7.6-16.2-14.8c0,0,0.2-1.2,1.8-14.3
				c1.5-13.1-4.1-21.8-4.1-21.8s-4.3,18.4-2.7,28c-1.6-2.7-2.5-4.5-2.5-4.5s-39.9-42.8-14.4-54.3c0,0,13.3,4.5,19.1,14.7
				c5.8,10.3,8.3,21.4,10.3,27.6c0,0,6.1,13,7.7,11.8c1.7-1.2,9.8-12.5,16.5-17.8s13.9-17.9,13.9-17.9S818.7,833.9,818.7,836.9z"/>
			<path class="st45" d="M759.5,863.8c-1.5,13.1-1.8,14.3-1.8,14.3c-2-2.9-3.7-5.8-4.9-8l0,0c-1.6-9.6,2.7-28,2.7-28
				S761,850.7,759.5,863.8z"/>
			<g>
				<g>
					<path class="st43" d="M723,1239.6c0,3.6,0.2,5.6-10,5.7c-10.3,0.1-20.1-13-27-22.3s-15.9-13.7-10.2-19.9
						c0.7-0.8,1.4-1.6,2.2-2.3c5.4-5.6,11.7-11,12.6-12.1c1-1.3,10.2,12.1,10.2,12.1s-0.8,6.7,0.9,10.6c1.6,3.9,4.3,18.2,9.1,20.5
						l0,0C715.5,1234.3,723,1238.8,723,1239.6z"/>
				</g>
			</g>
			<g>
				<g>
					<path class="st43" d="M784.7,1257.8c-7.3-0.1-28.2-1.2-39.7,0c-11.6,1.2-16.1-0.5-15.2-8.8c0-0.5,0.1-0.9,0.2-1.4
						c1-8.1,4.3-18.3,4.5-21.7c0.2-3.6,14.9-1.6,14.9-1.6s7.7,11.3,11.9,13.7c4.2,2.3,17,7,21.9,9.2c0.4,0.2,0.7,0.3,1.2,0.4l0,0
						c5.2,1.8,13.9,2,15.2,4.8C800.8,1255.3,792,1257.8,784.7,1257.8z"/>
				</g>
			</g>
			<g>
				<g>
					<path class="st43" d="M682.5,943.9c0,0-20.8,32.3-15.7,61.7c5.1,29.4,24,61.4,27.2,73.8c3.3,12.4,2.5,25.4,2.5,35.2
						c0,15.6,9.2,45,16.2,59.5c6.9,14.1,22.3,54.3,22.3,54.3l14.7-2.1c0,0-21.2-99.3-21.4-106.5s1.6-28.7-0.5-38
						s-11.2-72.5-14.2-84.2C710.5,985.9,721,924.3,682.5,943.9z"/>
				</g>
			</g>
			<path class="st26" d="M751.3,936.9c0,0,3.9,14.4,5.3,18.6c1.4,4.2,13.6,57.1,18.9,97.5c0,0-18.7,30-86.7,28.9
				c0,0-25.2-62.2-24.6-84.4c0.7-25.8,13.7-60.3,22-66.7C693.8,925.2,751.3,936.9,751.3,936.9z"/>
			<path class="st46" d="M759.5,863.8c-1.5,13.1-1.8,14.3-1.8,14.3c-2-2.9-3.7-5.8-4.9-8l0,0c-1.6-9.6,2.7-28,2.7-28
				S761,850.7,759.5,863.8z"/>
			<path class="st26" d="M677.2,867.2c4.6,8.9,7.2,23.3,9.8,26.7c5,6.5,3.5,15.5,3.5,18.4c-0.1,8.4-10.8,29.2-10.8,29.2
				c5.2,2.8,73,5.2,71.8-4.5s0.5-43.9,1.2-51.1s-0.2-14.3,0.4-17.5s4-8.8,4.3-17.4s-6.1-16.1-8.6-22.2c-3.1-7.4-8.7-17.6-14-17.8
				c-4.8-0.2-11.5-3.2-11.5-3.2l-19-1.5c0,0-5.3,1.8-13.3,2.4c-8.1,0.6-12.4,1.5-20.6,5.9c-8.1,4.5-4.3,34.9-4.3,34.9
				S672.7,857.8,677.2,867.2z"/>
			<path class="st20" d="M724.2,787.6c0,0-0.3,2.2-0.6,5.5c-0.1,1.7-0.3,3.6-0.3,5.7c-0.2,5.7,0.2,12.3,2.3,16.4
				c0,0-10.3,6.7-22.1-8.6c0,0,0.5-19.5-6.2-29.6C690.3,766.7,724.2,787.6,724.2,787.6z"/>
			<path class="st20" d="M698.8,807.7c0,0,5.3,27.5,21.9,23.9c16.6-3.6,3.3-23.5,3.3-23.5S717,801.6,698.8,807.7z"/>
			<g>
				<path class="st20" d="M672,883.8c0,0,7,3.7,11.4,5c3.4,1,10.5,5.9,11.5,8.6s0.9,17.9,1.6,19.3c0.8,1.3-1.9,2.1-3.5,0.2
					c0,0-4.6,4.2-8.2-0.2c-3.6-4.4-4.5-10.3-6.5-12.4c-2-2-14.1-13.3-14.1-13.3S669,880.6,672,883.8z"/>
			</g>
			<path class="st26" d="M736.5,764.3c0,0-3.3,32.1,2.7,40.2c0,0-15.7-3.4-19.3-8.8C716.3,790.3,736.5,764.3,736.5,764.3z"/>
			<path class="st20" d="M715.3,728.2c0,0,19.2-0.5,22.7,22.2s-4.6,42.7-7.8,45.9s-22.4,0.8-26.9-11s-11.1-20.4-10.2-30.6
				C694,744.6,691.7,727.8,715.3,728.2z"/>
			<path class="st26" d="M738.8,759.1c0,0,5.1-28.4-20.4-33.4s-34.4,12.4-36.9,22.7c-2.4,10.4,0.4,39.6,0.4,39.6s17,14.9,27.2,18.8
				c0,0-8.5-31.1-5.3-53.4c0,0,20.7,3.3,34.5-0.1C738.3,753.2,738.8,757.8,738.8,759.1z"/>
			<path class="st34" d="M723.5,797.7c0,0-6.7,0-15.7-5.9c0,0,6.4,8,15.3,10.9C723.2,802.7,723.7,798.7,723.5,797.7z"/>
			<path class="st26" d="M784.7,1257.8c-7.3-0.1-28.2-1.2-39.7,0c-11.6,1.2-16.1-0.5-15.2-8.8c0-0.5,0.1-0.9,0.2-1.4
				c2.8-1.9,22.8-0.8,34.7,0.8c11.9,1.5,19.6-0.8,19.6-0.8l0,0c5.2,1.8,13.9,2,15.2,4.8C800.8,1255.3,792,1257.8,784.7,1257.8z"/>
			<path class="st26" d="M723.3,1239.4c0,3.6-0.1,5.7-10.3,5.9c-10.3,0.1-20.1-13-27-22.3s-15.9-13.7-10.2-19.9
				c0.7-0.8,1.4-1.6,2.2-2.3c0.3,0.3,13.6,12.3,17.8,20.6c7,13.9,14.6,10.5,14.9,10.5l0,0C715.5,1234.3,723.3,1238.7,723.3,1239.4z"
				/>
			<path class="st26" d="M696.5,819.1c-1.7-4.3-15.2-10.7-26.8-4.1c-11.5,6.7-20.4,14-27.1,16.9c-6.8,2.9-30.5,20.9-33,25.1
				c-2.2,3.8-3.8,6.2,5.9,12.4c9.9,6.3,48.8,24.2,48.8,24.2l8.7-10.5c0,0-10.4-6.6-18.1-11.6c-7.7-4.9-4.8-3.5-13.5-8.3
				c0,0,14.6-8.8,20.1-10.8C667,850.6,704,838.3,696.5,819.1z"/>
		</g>
		<g>
			<path class="st3" d="M194.5,361.2c0,0-7.8-14.3-12.2-19.5s-19.2-9-17.2-15.6s21.8-3.7,27.2,2.7c5.4,6.4,22.1,8.7,22.6,11.5
				c0.6,2.7-5.8,17.6-9.3,20.1C202,362.8,194.5,361.2,194.5,361.2z"/>
			<path class="st3" d="M161.3,373.3c0,0-12.7-10.1-18.8-13.1c-6.1-3-21.2-0.7-22-7.5s18.5-12.1,26.1-8.3s23.7-0.7,25.3,1.5
				c1.6,2.3,1.7,18.5-0.6,22.1C169,371.8,161.3,373.3,161.3,373.3z"/>
			<path class="st20" d="M189.5,399.5c0,0,5.6-38,5.3-44.6c-0.1-1.9,11.4-1.2,10.9,2.4c-1.2,7.9,4.1,38.4,3.2,44
				S189,403,189.5,399.5z"/>
			<path class="st20" d="M172.1,410.5c0,0-10.4-36.9-12.8-43c-1.1-2.7,9.5-7,11-2.1c2.3,7.6,19,33.6,20.4,39.1
				C192,410,173.1,413.8,172.1,410.5z"/>
			<path class="st26" d="M179.4,436c0,0-11.2-37.7-12.9-41.7l17.6-10.9c0,0,8.2,24.1,9.3,30.1S179.4,436,179.4,436z"/>
			<path class="st47" d="M491.3,336.5c0,0-17,4.3-25.1,17.2s-15.1,27.7-30.3,34.4s-15.3,24-14.1,26.7s47.9,55.2,58.1,57.2
				c10.2,2,29.3,0.6,27.2-12.9s-22-42.5-10.8-57.2c11.2-14.6,14.1-28.1,14.1-28.1L491.3,336.5z"/>
			<path class="st20" d="M488.3,399.3c0,0-0.5-0.2-1.3-0.2c-1-0.1-2.4-0.1-4,0.5c-0.4,0.1-0.9,0.4-1.6,0.8c-4,2.4-13.6,8.8-14.9,9
				c-1.5,0.2-0.2-22.1-0.2-22.1s5.1-9,5.7-14.9C472.7,366.3,488.3,399.3,488.3,399.3z"/>
			<path class="st26" d="M368.6,422.7c0,0-18.7-13.1-40.6-9s-24.3,14.3-31.8,14.8s-32.7-1.7-53.3,4.3c-20.6,6-38,6.7-40.4,4.9
				c-2.4-1.7,12.9-36.1,12.9-40.8l-25.6-6.7c0,0-7.3,30.5-10.2,37.4c-3.1,7.4-9,21.2-0.6,33.2s31.8,6.6,46,9s77.7,0.9,88.7,0.3
				c12-0.6,48.3-2.4,48.3-2.4L368.6,422.7z"/>
			<path class="st20" d="M522.2,354.8c0,0,1.2,18.5-2.9,24c-1.6,2.2-2.8,3.4-3.5,4.1c-1.1,0.9-1.9,2.1-2.3,3.4
				c-1.3,3.6-2,8.6-3.1,9.6c-1.1,1.2-4.3-1.8-5.4-1.8c-1.2,0-12.4,9.7-15.1,7.7c-2.7-2-19.1-18.6-17.7-30.1
				c1.4-11.4,6.4-28.5,24.9-28.4C515.5,343.5,520.8,350.2,522.2,354.8z"/>
			<path class="st48" d="M466.3,442.8c-0.4,0.8-7.1,11.6-14.6,17.9c-3.1,2.6-6.3,4.4-9.2,4.4c-0.9,0-1.7,0-2.6,0
				c-8.5,0.2-15.1,1.5-26.6,2.1c-12,0.6-41-1.1-41.9-1.1s-9.2,1.5-9.2,1.5c-3-3.7,4.9-44.9,6.4-45.1c1.5-0.2,11.2,3.4,20.4,1.9
				s12.9-2.4,26.6-18.5c13.8-16.1,27.5-20.2,33.3-18.9s17.3,0,17.3,0S466.8,441.8,466.3,442.8z"/>
			<rect x="532" y="479" class="st49" width="71.3" height="7.7"/>
			<polygon class="st49" points="620.5,411.3 596,484.3 603.3,486.7 627.8,413.8 			"/>
			<path class="st47" d="M514.3,368c0,0,3.4,8.9,5.3,10.2c0,0,6.6-7,2.4-24.4c-4.3-17.3-20.4-19-30.8-17.2
				c-12.9,2.2-26,46-25.3,50.2s15.2-22.6,27.9-20.5C506.5,368.5,506.7,369.2,514.3,368z"/>
			<path class="st34" d="M487,399c-1-0.1-2.3,0-3.9,0.6c-0.4,0.1-1,0.3-1.6,0.7c-3-4.6-5.7-15.6-5.8-16C477.5,390.3,487,399,487,399
				z"/>
			<path class="st50" d="M451.8,460.8c-3.1,2.6-6.3,4.4-9.2,4.4c-0.9,0-1.7,0-2.6,0l3.5-34.2L451.8,460.8z"/>
			<path class="st20" d="M467.2,427.7c0,0,1.1,26.9,1.6,31.5c0.5,4.5-0.1,7.2,4.8,7.6c4.8,0.4,38.6,4.3,48.9,6
				c10.3,1.7,14.2-2.3,16.1-2.9c1.9-0.6,13.6-0.9,17,0.2c3.7,1.2,8.4,4.1,11.4,4.5s7.2,2.1,6.9,3.5s-6.9,1.2-9,1.2
				c-2,0-34.1-0.9-35.6-0.1c-2,1-27.9,2.3-32.6,2.3s-42.3,2.9-45.6-1.6s-7.5-51.9-7.1-54C444.3,423.8,464.8,422.7,467.2,427.7z"/>
			<path class="st48" d="M468.8,428.3c0,0,1.3-35.9-10.4-35.5c-14.8,0.6-17,18.6-15,38.2C443.5,431,465.5,431.3,468.8,428.3z"/>
		</g>
	</g>
</g>
</svg>
