<svg xmlns="http://www.w3.org/2000/svg">
    <symbol viewBox="0 0 32 32" id="portfolio">
        <path fill="currentColor" fill-rule="evenodd" d="M14 0A14 14 0 0 0 0 14a14 14 0 0 0 14 14 14 14 0 0 0 14-14A14 14 0 0 0 14 0zm-2.5 8h5c.3 0 .5.2.5.5V10h3c.417 0 .775.193 1.041.459.266.266.459.624.459 1.041v7c0 .878-.733 1.5-1.5 1.5H8c-.767 0-1.5-.622-1.5-1.5v-7c0-.878.733-1.5 1.5-1.5h3V8.5c0-.3.2-.5.5-.5zm.5 1v1h4V9h-4zm-4 2c-.233 0-.5.178-.5.5v2c0 .189.055.297.129.371.074.074.182.129.371.129h4c0-.261.095-.528.283-.717.189-.188.456-.283.717-.283h2c.261 0 .528.095.717.283.188.189.283.456.283.717h4c.189 0 .297-.055.371-.129.074-.074.129-.182.129-.371v-2a.544.544 0 0 0-.166-.334A.544.544 0 0 0 20 11H8zm5 3v1h2v-1h-2zm-5.5.918V18.5c0 .322.267.5.5.5h12c.233 0 .5-.178.5-.5v-3.582c-.16.05-.327.082-.5.082h-4c0 .261-.095.528-.283.717A1.018 1.018 0 0 1 15 16h-2c-.261 0-.528-.095-.717-.283A1.018 1.018 0 0 1 12 15H8c-.173 0-.34-.031-.5-.082z">
        </path>
    </symbol>
</svg>